<?xml version="1.0" encoding="UTF-8"?>
<svg width="256" height="256" viewBox="0 0 256 256" xmlns="http://www.w3.org/2000/svg">
  <defs>
    <linearGradient id="g1" x1="0" y1="0" x2="1" y2="1">
      <stop offset="0%" stop-color="#ffe29a"/>
      <stop offset="60%" stop-color="#ff9a9e"/>
      <stop offset="100%" stop-color="#ff6a88"/>
    </linearGradient>
    <linearGradient id="g2" x1="0" y1="1" x2="1" y2="0">
      <stop offset="0%" stop-color="#66d6ff"/>
      <stop offset="100%" stop-color="#667eea"/>
    </linearGradient>
    <linearGradient id="g3" x1="0" y1="0" x2="0" y2="1">
      <stop offset="0%" stop-color="#ffffff" stop-opacity="0.5"/>
      <stop offset="100%" stop-color="#ffffff" stop-opacity="0"/>
    </linearGradient>
  </defs>
  <rect width="256" height="256" rx="32" fill="url(#g1)"/>
  <rect x="36" y="60" width="184" height="140" rx="32" fill="url(#g2)" opacity="0.92"/>
  <path d="M60 70 Q128 0 196 70" fill="url(#g3)"/>
  <g transform="translate(64 100)">
    <rect x="0" y="0" width="128" height="96" rx="18" fill="#ffd4f2"/>
    <rect x="14" y="16" width="100" height="16" rx="8" fill="#ffe29a"/>
    <rect x="14" y="40" width="100" height="38" rx="10" fill="#fff"/>
    <line x1="14" y1="40" x2="114" y2="40" stroke="#ff8fb1" stroke-width="6" stroke-linecap="round"/>
    <line x1="64" y1="40" x2="64" y2="78" stroke="#ff8fb1" stroke-width="6" stroke-linecap="round"/>
    <path d="M48 90 L64 58 L80 90" stroke="#ff8fb1" stroke-width="6" fill="none" stroke-linejoin="round"/>
  </g>
  <g transform="translate(120 40)">
    <path d="M0 40 L28 10 L56 40" fill="#ffd4f2" stroke="#ff8fb1" stroke-width="6" stroke-linecap="round"/>
    <circle cx="28" cy="10" r="6" fill="#fff"/>
    <path d="M28 0 L28 -16" stroke="#fff" stroke-width="5" stroke-linecap="round"/>
  </g>
  <circle cx="128" cy="196" r="24" fill="#ffe29a" opacity="0.6"/>
</svg>
