<?xml version="1.0" encoding="UTF-8"?>
<svg width="256" height="256" viewBox="0 0 256 256" xmlns="http://www.w3.org/2000/svg">
  <defs>
    <radialGradient id="rg" cx="50%" cy="40%" r="60%">
      <stop offset="0%" stop-color="#fffead"/>
      <stop offset="60%" stop-color="#ffd4f2"/>
      <stop offset="100%" stop-color="#fcb69f"/>
    </radialGradient>
    <linearGradient id="claw" x1="0%" y1="0%" x2="100%" y2="100%">
      <stop offset="0%" stop-color="#9be7ff"/>
      <stop offset="100%" stop-color="#667eea"/>
    </linearGradient>
    <linearGradient id="rainbow" x1="0%" y1="100%" x2="100%" y2="0%">
      <stop offset="0%" stop-color="#f6f5ff"/>
      <stop offset="33%" stop-color="#ffb347"/>
      <stop offset="66%" stop-color="#ff6a88"/>
      <stop offset="100%" stop-color="#9b5de5"/>
    </linearGradient>
  </defs>
  <rect width="256" height="256" rx="32" fill="url(#rg)"/>
  <path d="M40 140 Q128 40 216 140" fill="none" stroke="url(#rainbow)" stroke-width="24" stroke-linecap="round"/>
  <path d="M60 160 Q128 60 196 160" fill="none" stroke="url(#rainbow)" stroke-width="16" stroke-linecap="round" opacity="0.65"/>
  <g transform="translate(64 140)">
    <circle cx="56" cy="56" r="48" fill="url(#claw)" opacity="0.9"/>
    <path d="M56 24 C68 40 88 40 96 56 C104 72 84 88 80 104" stroke="#fff" stroke-width="6" fill="none" stroke-linecap="round"/>
    <path d="M56 24 C44 40 24 40 16 56 C8 72 28 88 32 104" stroke="#fff" stroke-width="6" fill="none" stroke-linecap="round"/>
    <path d="M32 120 Q56 126 80 120" stroke="#fff" stroke-width="6" fill="none" stroke-linecap="round"/>
  </g>
  <circle cx="180" cy="190" r="28" fill="#fff" opacity="0.4"/>
</svg>
