<?xml version="1.0" encoding="UTF-8"?>
<svg width="256" height="256" viewBox="0 0 256 256" xmlns="http://www.w3.org/2000/svg">
  <defs>
    <linearGradient id="grad1" x1="0%" y1="0%" x2="100%" y2="100%">
      <stop offset="0%" stop-color="#ff9a9e"/>
      <stop offset="50%" stop-color="#fcb69f"/>
      <stop offset="100%" stop-color="#ffde7d"/>
    </linearGradient>
    <linearGradient id="grad2" x1="0%" y1="100%" x2="100%" y2="0%">
      <stop offset="0%" stop-color="#9be7ff"/>
      <stop offset="100%" stop-color="#667eea"/>
    </linearGradient>
    <linearGradient id="grad3" x1="0%" y1="0%" x2="100%" y2="0%">
      <stop offset="0%" stop-color="#ffe29a"/>
      <stop offset="100%" stop-color="#ffd4f2"/>
    </linearGradient>
  </defs>
  <rect width="256" height="256" rx="32" fill="url(#grad1)"/>
  <g transform="translate(40 60)">
    <ellipse cx="88" cy="60" rx="94" ry="80" fill="url(#grad2)" opacity="0.85"/>
    <rect x="32" y="80" width="128" height="90" rx="20" fill="url(#grad3)"/>
    <path d="M40 90 L72 120 L40 150" stroke="#ff8fb1" stroke-width="10" fill="none" stroke-linecap="round" stroke-linejoin="round"/>
    <path d="M168 90 L136 120 L168 150" stroke="#ff8fb1" stroke-width="10" fill="none" stroke-linecap="round" stroke-linejoin="round"/>
    <rect x="52" y="40" width="72" height="16" rx="8" fill="#fff" opacity="0.85"/>
    <rect x="112" y="40" width="32" height="16" rx="8" fill="#fff" opacity="0.85"/>
    <path d="M72 10 Q88 -20 104 10" fill="#fff" opacity="0.8"/>
    <line x1="80" y1="24" x2="80" y2="0" stroke="#fff" stroke-width="5" stroke-linecap="round"/>
    <circle cx="80" cy="-6" r="12" fill="#ffcbcb"/>
  </g>
</svg>
